#!OML:ASF F:\twosubjects\two\Thursday\Session 1\Rory.ASF
:FULLY-SPECIFIED
:DEGREES
273
root 10.1396 20.1211 12.3323 49.5352 -95.8176 -45.6025
lowerback -3.08366 -0.883005 -3.42541
upperback -1.71652 -1.14533 -2.60509
thorax -0.0216626 -0.58912 -0.786991
lowerneck -13.7975 -4.43489 -3.72528
upperneck 18.8108 -6.78377 5.96663
head 8.46355 -2.96764 1.82321
rclavicle -1.74061e-014 3.97569e-015
rhumerus -36.2158 -48.5644 -36.6268
rradius 37.3296
rwrist -13.3455
rhand -34.1844 27.8904
rfingers 7.12502
rthumb -7.35753 -1.96165
lclavicle -1.74061e-014 3.97569e-015
lhumerus -31.0646 27.6838 35.5507
lradius 38.4427
lwrist 18.8491
lhand -10.0119 39.6175
lfingers 7.12502
lthumb 15.9722 68.979
rfemur -17.4711 10.1259 15.4768
rtibia 34.9125
rfoot 12.2043 8.91855
rtoes -4.85752
lfemur -13.7328 3.42806 -15.9335
ltibia 34.8605
lfoot 20.2307 -8.94035
ltoes 3.22996
274
root 10.1252 20.2688 12.331 50.2674 -95.8647 -46.0919
lowerback -3.61589 -0.834058 -3.39349
upperback -1.77924 -1.05817 -2.63591
thorax 0.20926 -0.549553 -0.842162
lowerneck -13.8064 -4.45972 -4.14354
upperneck 18.9213 -6.79804 6.25786
head 8.52872 -2.9744 1.98767
rclavicle 4.31735e-015 -2.0276e-014
rhumerus -34.8256 -48.0886 -35.3105
rradius 38.3419
rwrist -13.7422
rhand -34.1618 27.9081
rfingers 7.12502
rthumb -7.33577 -1.94473
lclavicle 4.31735e-015 -2.0276e-014
lhumerus -29.4635 27.6461 33.9837
lradius 38.8711
lwrist 18.5737
lhand -8.93602 39.3497
lfingers 7.12502
lthumb 17.008 68.6251
rfemur -17.4712 11.0068 14.7221
rtibia 34.1338
rfoot 9.92561 7.61865
rtoes -7.61494
lfemur -13.569 1.99963 -15.6074
ltibia 33.9942
lfoot 16.7106 -6.36795
ltoes -1.57428
275
root 10.1133 20.4161 12.325 53.6729 -96.0797 -49.3673
lowerback -3.99381 -0.971773 -3.87104
upperback -1.84366 -1.21134 -2.60002
thorax 0.365229 -0.626676 -0.551414
lowerneck -13.7547 -4.41047 -4.77722
upperneck 18.9609 -6.6515 6.53714
head 8.55584 -2.92314 2.20525
rclavicle 2.42269e-015 1.63003e-014
rhumerus -32.7727 -47.1668 -34.4243
rradius 39.3231
rwrist -14.4057
rhand -34.1129 27.3431
rfingers 7.12502
rthumb -7.28854 -2.51137
lclavicle 2.42269e-015 1.63003e-014
lhumerus -28.2535 27.6863 32.2289
lradius 39.3526
lwrist 18.4976
lhand -7.42204 39.324
lfingers 7.12502
lthumb 18.4649 68.4676
rfemur -17.3488 11.9328 13.5279
rtibia 33.4974
rfoot 8.0422 4.95824
rtoes -7.13712
lfemur -13.3116 0.761882 -15.6319
ltibia 33.233
lfoot 13.2609 -3.67902
ltoes -4.12243
276
root 10.1072 20.5398 12.3101 52.9668 -96.192 -48.7325
lowerback -4.01974 -0.960645 -3.97151
upperback -1.94056 -1.1997 -2.65779
thorax 0.280234 -0.620529 -0.55364
lowerneck -13.5891 -4.36356 -4.75105
upperneck 19.0834 -6.61624 6.54047
head 8.56391 -2.90991 2.20923
rclavicle 3.90115e-015 -1.55052e-014
rhumerus -30.8325 -46.769 -33.2675
rradius 39.7566
rwrist -14.6623
rhand -34.3291 27.0102
rfingers 7.12502
rthumb -7.49728 -2.83693
lclavicle 3.90115e-015 -1.55052e-014
lhumerus -26.7438 26.8894 30.5474
lradius 40.0267
lwrist 19.4837
lhand -7.3589 39.8482
lfingers 7.12502
lthumb 18.5256 68.9861
rfemur -17.0538 12.8598 12.7772
rtibia 32.9533
rfoot 6.23776 2.51623
rtoes -8.24445
lfemur -12.7613 -0.302917 -15.21
ltibia 32.4954
lfoot 10.4162 -0.276816
ltoes -3.4816
277
root 10.1046 20.6437 12.2978 48.8125 -96.121 -44.6483
lowerback -4.0569 -0.842656 -3.7519
upperback -1.98999 -1.04883 -2.58243
thorax 0.245326 -0.544495 -0.592288
lowerneck -13.4978 -4.3516 -4.71132
upperneck 19.2263 -6.63803 6.57512
head 8.5968 -2.91737 2.21327
rclavicle 1.86361e-015 -2.90226e-014
rhumerus -28.6879 -46.8316 -31.8635
rradius 39.7243
rwrist -14.5162
rhand -35.0416 27.8523
rfingers 7.12502
rthumb -8.18494 -1.96916
lclavicle 1.86361e-015 -2.90226e-014
lhumerus -24.9348 25.8473 29.1046
lradius 40.6522
lwrist 20.9181
lhand -9.23668 40.4082
lfingers 7.12502
lthumb 16.7186 69.7083
rfemur -16.8496 13.3325 12.5066
rtibia 32.505
rfoot 4.73136 0.747592
rtoes -9.98519
lfemur -12.1591 -1.02954 -14.3242
ltibia 31.7031
lfoot 8.23026 3.02005
ltoes -1.85891
278
root 10.0996 20.744 12.2975 47.6 -96.0273 -43.5891
lowerback -4.03813 -0.819734 -3.78889
upperback -1.95346 -1.01161 -2.37439
thorax 0.27635 -0.522827 -0.356365
lowerneck -13.572 -4.3638 -4.98602
upperneck 19.3414 -6.59117 6.54908
head 8.65467 -2.91403 2.25474
rclavicle 7.60351e-015 8.34896e-015
rhumerus -26.9839 -45.8338 -30.5672
rradius 40.7688
rwrist -15.2421
rhand -35.475 28.868
rfingers 7.12502
rthumb -8.60314 -0.936682
lclavicle 7.60351e-015 8.34896e-015
lhumerus -23.1963 25.4061 27.823
lradius 41.0815
lwrist 21.469
lhand -10.8838 40.4043
lfingers 7.12502
lthumb 15.1324 69.8311
rfemur -16.5357 12.9011 11.9907
rtibia 32.1257
rfoot 3.65155 -0.344157
rtoes -9.86795
lfemur -11.5299 -1.62287 -13.6902
ltibia 30.8806
lfoot 6.63471 5.083
ltoes -3.98581
279
root 10.0918 20.837 12.301 50.1813 -96.044 -46.5584
lowerback -3.82477 -0.858195 -4.04001
upperback -1.82293 -1.05794 -2.34543
thorax 0.296993 -0.544406 -0.186251
lowerneck -13.542 -4.36069 -5.00766
upperneck 19.2545 -6.51794 6.31397
head 8.60727 -2.90353 2.18849
rclavicle -1.30577e-014 3.57812e-014
rhumerus -25.2079 -45.0873 -29.2683
rradius 41.6311
rwrist -15.6751
rhand -36.0817 29.4089
rfingers 7.12502
rthumb -9.18863 -0.370948
lclavicle -1.30577e-014 3.57812e-014
lhumerus -21.4394 25.8737 26.4216
lradius 41.4313
lwrist 20.7549
lhand -11.3128 39.8987
lfingers 7.12502
lthumb 14.7192 69.3561
rfemur -15.8896 12.2351 11.073
rtibia 31.7839
rfoot 2.46675 -0.786625
rtoes -9.54037
lfemur -10.7093 -2.23511 -13.4479
ltibia 30.0606
lfoot 5.45097 6.58192
ltoes -6.01516
280
root 10.0881 20.9045 12.2936 51.5104 -96.1794 -48.2844
lowerback -3.60654 -0.912114 -4.26256
upperback -1.73389 -1.13217 -2.43115
thorax 0.270551 -0.581349 -0.15034
lowerneck -13.3381 -4.23574 -4.95938
upperneck 19.2184 -6.35365 6.2702
head 8.54415 -2.83298 2.18919
rclavicle 5.08143e-015 3.10104e-014
rhumerus -23.0034 -44.5497 -28.3142
rradius 41.9677
rwrist -15.6755
rhand -36.7544 29.4933
rfingers 7.12502
rthumb -9.83771 -0.256918
lclavicle 5.08143e-015 3.10104e-014
lhumerus -19.8391 25.9971 24.648
lradius 42.0113
lwrist 20.6332
lhand -11.4142 40.028
lfingers 7.12502
lthumb 14.6215 69.4926
rfemur -15.2862 12.3822 10.1803
rtibia 31.4635
rfoot 1.21786 -1.37545
rtoes -9.72577
lfemur -9.83267 -2.58006 -13.0926
ltibia 29.2246
lfoot 4.46868 7.82358
ltoes -3.0625
281
root 10.0877 20.9552 12.2823 50.2676 -96.225 -47.38
lowerback -3.35078 -0.856954 -4.24006
upperback -1.71445 -1.07421 -2.47658
thorax 0.14465 -0.550844 -0.203061
lowerneck -13.2376 -4.14329 -5.07224
upperneck 19.4753 -6.27936 6.47401
head 8.61841 -2.79059 2.28765
rclavicle 1.06847e-015 4.37326e-015
rhumerus -21.0111 -44.2931 -27.0521
rradius 42.2117
rwrist -15.3204
rhand -37.1992 29.5376
rfingers 7.12502
rthumb -10.2668 -0.191838
lclavicle 1.06847e-015 4.37326e-015
lhumerus -17.9728 25.4855 22.9989
lradius 42.4801
lwrist 21.2073
lhand -11.7666 40.43
lfingers 7.12502
lthumb 14.2819 69.9188
rfemur -14.7843 12.7241 9.56117
rtibia 31.1283
rfoot 0.599502 -1.89142
rtoes -11.2098
lfemur -8.97507 -2.78921 -12.4165
ltibia 28.4275
lfoot 3.84891 8.50413
ltoes -0.42522
282
root 10.0872 21.0113 12.2781 48.1779 -96.1896 -45.6789
lowerback -3.0405 -0.727595 -4.06153
upperback -1.61033 -0.917555 -2.48391
thorax 0.071449 -0.471829 -0.300836
lowerneck -13.2249 -4.18696 -4.8966
upperneck 19.4814 -6.36841 6.41412
head 8.6161 -2.82642 2.22759
rclavicle -1.72694e-015 2.14687e-014
rhumerus -19.3166 -44.1914 -25.5328
rradius 42.7661
rwrist -15.1304
rhand -37.9042 30.4233
rfingers 7.12502
rthumb -10.9469 0.728691
lclavicle -1.72694e-015 2.14687e-014
lhumerus -15.7822 25.5242 21.6531
lradius 42.7417
lwrist 21.1962
lhand -12.0917 40.1953
lfingers 7.12502
lthumb 13.9687 69.7061
rfemur -14.1826 12.6637 9.03549
rtibia 30.7475
rfoot 0.993919 -1.61131
rtoes -14.88
lfemur -8.08343 -3.37403 -11.6866
ltibia 27.7411
lfoot 3.4681 9.21761
ltoes -0.583651
283
root 10.0874 21.0521 12.2781 46.7866 -96.0426 -44.6454
lowerback -2.82517 -0.698859 -3.83116
upperback -1.44336 -0.886146 -2.4945
thorax 0.118725 -0.457496 -0.437492
lowerneck -13.0757 -4.20411 -4.32941
upperneck 19.1028 -6.40775 6.05148
head 8.43227 -2.84384 2.00918
rclavicle 8.7341e-015 3.57812e-015
rhumerus -17.2499 -44.0322 -24.3953
rradius 43.1755
rwrist -15.066
rhand -38.9624 31.4479
rfingers 7.12502
rthumb -11.9674 1.80996
lclavicle 8.7341e-015 3.57812e-015
lhumerus -13.7442 26.013 20.1833
lradius 43.1511
lwrist 20.897
lhand -12.2411 39.9007
lfingers 7.12502
lthumb 13.8246 69.4213
rfemur -13.5753 12.7121 8.48826
rtibia 30.3389
rfoot 1.47782 -1.55671
rtoes -16.156
lfemur -7.28827 -4.28576 -10.9682
ltibia 27.1403
lfoot 2.9104 10.2936
ltoes 1.84935
284
root 10.0871 21.0674 12.2781 46.6402 -95.8787 -44.6493
lowerback -2.8237 -0.717695 -3.67013
upperback -1.35704 -0.909743 -2.512
thorax 0.204599 -0.471034 -0.546704
lowerneck -12.9803 -4.17936 -3.98524
upperneck 18.898 -6.38312 5.82355
head 8.32549 -2.83272 1.88085
rclavicle -7.42958e-015 4.77083e-015
rhumerus -14.9064 -43.8809 -23.2804
rradius 43.245
rwrist -14.9786
rhand -39.6253 31.373
rfingers 7.12502
rthumb -12.6066 1.77343
lclavicle -7.42958e-015 4.77083e-015
lhumerus -11.7793 26.5859 18.6404
lradius 43.5676
lwrist 20.3666
lhand -12.1115 39.9794
lfingers 7.12502
lthumb 13.9495 69.4915
rfemur -13.173 12.9671 7.81421
rtibia 29.9455
rfoot 1.46847 -2.49536
rtoes -11.3838
lfemur -6.76487 -4.97236 -10.2663
ltibia 26.5738
lfoot 2.58881 10.8289
ltoes 4.60903
